<svg xmlns="http://www.w3.org/2000/svg" fill="none" viewBox="0 0 868 71" height="71" width="868">
<path fill="#232324" d="M75.4453 69.0405L74.4453 70.0405H62.4453L61.4453 69.0405V30.0405H60.4453L44.4453 69.0405L43.4453 70.0405H32.4453L31.4453 69.0405L15.4453 30.0405H14.4453V69.0405L13.4453 70.0405H1.44531L0.445313 69.0405V1.04052L1.44531 0.0405226H16.4453L17.4453 1.04052L37.4453 50.0405H38.4453L58.4453 1.04052L59.4453 0.0405226H74.4453L75.4453 1.04052V69.0405ZM150.461 69.0405L149.461 70.0405H140.461L139.461 69.0405L134.461 56.0405L132.461 55.0405H107.461L105.461 56.0405L100.461 69.0405L99.4609 70.0405H90.4609L89.4609 69.0405V59.0405L112.461 1.04052L113.461 0.0405226H126.461L127.461 1.04052L150.461 59.0405V69.0405ZM129.461 42.0405L120.461 18.0405H119.461L110.461 42.0405L111.461 43.0405H128.461L129.461 42.0405ZM219.5 69.0405L218.5 70.0405H211.5L209.5 69.0405L190.5 44.0405H189.5L170.5 69.0405L168.5 70.0405H161.5L160.5 69.0405V59.0405L180.5 34.0405V33.0405L161.5 11.0405V1.04052L162.5 0.0405226H169.5L171.5 1.04052L189.5 23.0405H190.5L208.5 1.04052L210.5 0.0405226H217.5L218.5 1.04052V11.0405L199.5 33.0405V34.0405L219.5 59.0405V69.0405ZM268.492 0.0405226H281.492L282.492 1.04052L295.492 47.0405H296.492L306.492 1.04052L307.492 0.0405226H317.492L318.492 1.04052V11.0405L303.492 69.0405L302.492 70.0405H289.492L288.492 69.0405L275.492 21.0405H274.492L261.492 69.0405L260.492 70.0405H247.492L246.492 69.0405L231.492 11.0405V1.04052L232.492 0.0405226H242.492L243.492 1.04052L253.492 47.0405H254.492L267.492 1.04052L268.492 0.0405226ZM383.512 69.0405L382.512 70.0405H335.512L334.512 69.0405V1.04052L335.512 0.0405226H382.512L383.512 1.04052V11.0405L382.512 12.0405H349.512L348.512 13.0405V27.0405L349.512 28.0405H380.512L381.512 29.0405V39.0405L380.512 40.0405H349.512L348.512 41.0405V57.0405L349.512 58.0405H382.512L383.512 59.0405V69.0405ZM448.5 69.0405L447.5 70.0405H402.5L401.5 69.0405V1.04052L402.5 0.0405226H414.5L415.5 1.04052V57.0405L416.5 58.0405H447.5L448.5 59.0405V69.0405ZM508.457 69.0405L507.457 70.0405H462.457L461.457 69.0405V1.04052L462.457 0.0405226H474.457L475.457 1.04052V57.0405L476.457 58.0405H507.457L508.457 59.0405V69.0405ZM563.457 49.0405L562.457 50.0405H514.457L513.457 49.0405V39.0405L514.457 38.0405H562.457L563.457 39.0405V49.0405ZM656.469 69.0405L655.469 70.0405H643.469L642.469 69.0405V30.0405H641.469L625.469 69.0405L624.469 70.0405H613.469L612.469 69.0405L596.469 30.0405H595.469V69.0405L594.469 70.0405H582.469L581.469 69.0405V1.04052L582.469 0.0405226H597.469L598.469 1.04052L618.469 50.0405H619.469L639.469 1.04052L640.469 0.0405226H655.469L656.469 1.04052V69.0405ZM731.484 69.0405L730.484 70.0405H721.484L720.484 69.0405L715.484 56.0405L713.484 55.0405H688.484L686.484 56.0405L681.484 69.0405L680.484 70.0405H671.484L670.484 69.0405V59.0405L693.484 1.04052L694.484 0.0405226H707.484L708.484 1.04052L731.484 59.0405V69.0405ZM710.484 42.0405L701.484 18.0405H700.484L691.484 42.0405L692.484 43.0405H709.484L710.484 42.0405ZM794.523 8.94053C799.857 14.8739 802.523 23.5739 802.523 35.0405C802.523 46.5072 799.857 55.2072 794.523 61.1405C789.257 67.0739 780.59 70.0405 768.523 70.0405H746.523L745.523 69.0405V1.04052L746.523 0.0405226H768.523C780.59 0.0405226 789.257 3.00719 794.523 8.94053ZM784.223 52.6405C787.09 49.0405 788.523 43.1739 788.523 35.0405C788.523 26.9072 787.09 21.0405 784.223 17.4405C781.357 13.8405 776.457 12.0405 769.523 12.0405H760.523L759.523 13.0405V57.0405L760.523 58.0405H769.523C776.457 58.0405 781.357 56.2405 784.223 52.6405ZM867.566 69.0405L866.566 70.0405H819.566L818.566 69.0405V1.04052L819.566 0.0405226H866.566L867.566 1.04052V11.0405L866.566 12.0405H833.566L832.566 13.0405V27.0405L833.566 28.0405H864.566L865.566 29.0405V39.0405L864.566 40.0405H833.566L832.566 41.0405V57.0405L833.566 58.0405H866.566L867.566 59.0405V69.0405Z"></path>
</svg>
